<?xml version="1.0" encoding="UTF-8" standalone="no"?>
<!-- Created with Inkscape (http://www.inkscape.org/) -->

<svg
   width="16"
   height="16"
   viewBox="0 0 16 16"
   version="1.1"
   id="svg1"
   xml:space="preserve"
   inkscape:version="1.4.3 (0d15f75042, 2025-12-25)"
   sodipodi:docname=".vg.svg"
   inkscape:export-filename="vg.png"
   inkscape:export-xdpi="1536"
   inkscape:export-ydpi="1536"
   xmlns:inkscape="http://www.inkscape.org/namespaces/inkscape"
   xmlns:sodipodi="http://sodipodi.sourceforge.net/DTD/sodipodi-0.dtd"
   xmlns="http://www.w3.org/2000/svg"
   xmlns:svg="http://www.w3.org/2000/svg"><sodipodi:namedview
     id="namedview1"
     pagecolor="#6c6c6c"
     bordercolor="#000000"
     borderopacity="0.25"
     inkscape:showpageshadow="2"
     inkscape:pageopacity="0.0"
     inkscape:pagecheckerboard="true"
     inkscape:deskcolor="#8e8e8e"
     inkscape:document-units="px"
     showgrid="true"
     inkscape:zoom="26.343751"
     inkscape:cx="7.060498"
     inkscape:cy="5.5990508"
     inkscape:window-width="1880"
     inkscape:window-height="1048"
     inkscape:window-x="40"
     inkscape:window-y="0"
     inkscape:window-maximized="1"
     inkscape:current-layer="layer1"><inkscape:grid
       id="grid1"
       units="px"
       originx="8"
       originy="8"
       spacingx="1"
       spacingy="1"
       empcolor="#0099e5"
       empopacity="0.30196078"
       color="#0099e5"
       opacity="0.14901961"
       empspacing="5"
       enabled="true"
       visible="true" /></sodipodi:namedview><defs
     id="defs1" /><g
     inkscape:label="图层 1"
     inkscape:groupmode="layer"
     id="layer1"><path
       id="rect1"
       style="opacity:0.6;fill:#ffffff;fill-opacity:1;stroke:none;stroke-width:2;stroke-linecap:square"
       inkscape:label="bg"
       d="M 3,1 1,3 V 3.7070312 L 3.7070312,1 Z M 10.292969,1 10,1.2929688 V 2.7070312 L 11.707031,1 Z M 6,1.2929688 l -5,5 v 1.4140624 l 5,-5 z M 13.646484,1.6464844 10,5.2929688 V 6.7070312 L 14.353516,2.3535156 Z M 15,4.2929688 l -5,5 v 1.4140622 l 5,-4.9999998 z m -9,1 -5,5.0000002 v 1.414062 L 6,6.7070312 Z m 9,3 -5,5.0000002 v 1.414062 l 5,-4.9999998 z m -9,1 L 1.6464844,13.646484 2.3535156,14.353516 6,10.707031 Z M 15,12.292969 12.292969,15 H 13 l 2,-2 z m -9,1 L 4.2929688,15 H 5.7070312 L 6,14.707031 Z"
       sodipodi:nodetypes="cccccccccccccccccccccccccccccccccccccccccccccccccc" /><path
       id="rect1-8"
       style="baseline-shift:baseline;display:inline;overflow:visible;opacity:1;vector-effect:none;fill:#ffffff;stroke-linecap:square;enable-background:accumulate;stop-color:#000000;stop-opacity:1"
       d="M 3,1 1,3 v 10 l 2,2 H 6 V 1 Z m 7,0 v 14 h 3 l 2,-2 V 3 L 13,1 Z M 3.4140625,2 H 5 V 14 H 3.4140625 L 2,12.585938 V 3.4140625 Z M 11,2 h 1.585938 L 14,3.4140625 V 12.585938 L 12.585938,14 H 11 Z"
       sodipodi:nodetypes="cccccccccccccccccccccccccccc" /><path
       d="M 7,0 V 16 H 9 V 0 Z"
       style="baseline-shift:baseline;display:inline;overflow:visible;vector-effect:none;fill:#ffffff;stroke-linecap:square;enable-background:accumulate;stop-color:#000000;opacity:0.6"
       id="path1" /></g></svg>
