<?xml version="1.0" encoding="UTF-8" standalone="no"?>
<!-- Created with Inkscape (http://www.inkscape.org/) -->

<svg
   width="16"
   height="16"
   viewBox="0 0 16 16"
   version="1.1"
   id="svg1"
   xml:space="preserve"
   inkscape:version="1.4.3 (0d15f75042, 2025-12-25)"
   sodipodi:docname=".hg.svg"
   inkscape:export-filename="hg.png"
   inkscape:export-xdpi="1536"
   inkscape:export-ydpi="1536"
   xmlns:inkscape="http://www.inkscape.org/namespaces/inkscape"
   xmlns:sodipodi="http://sodipodi.sourceforge.net/DTD/sodipodi-0.dtd"
   xmlns="http://www.w3.org/2000/svg"
   xmlns:svg="http://www.w3.org/2000/svg"><sodipodi:namedview
     id="namedview1"
     pagecolor="#6c6c6c"
     bordercolor="#000000"
     borderopacity="0.25"
     inkscape:showpageshadow="2"
     inkscape:pageopacity="0.0"
     inkscape:pagecheckerboard="true"
     inkscape:deskcolor="#8e8e8e"
     inkscape:document-units="px"
     showgrid="true"
     inkscape:zoom="26.34375"
     inkscape:cx="5.9596679"
     inkscape:cy="8.1423488"
     inkscape:window-width="1880"
     inkscape:window-height="1048"
     inkscape:window-x="40"
     inkscape:window-y="0"
     inkscape:window-maximized="1"
     inkscape:current-layer="layer1"><inkscape:grid
       id="grid1"
       units="px"
       originx="8"
       originy="8"
       spacingx="1"
       spacingy="1"
       empcolor="#0099e5"
       empopacity="0.30196078"
       color="#0099e5"
       opacity="0.14901961"
       empspacing="5"
       enabled="true"
       visible="true" /></sodipodi:namedview><defs
     id="defs1" /><g
     inkscape:label="图层 1"
     inkscape:groupmode="layer"
     id="layer1"><path
       id="rect1"
       style="opacity:0.6;fill:#ffffff;fill-opacity:1;stroke:none;stroke-width:2;stroke-linecap:square"
       inkscape:label="bg"
       d="M 3,1 1,3 V 3.7070312 L 3.7070312,1 Z m 3.2929688,0 -5,5 h 1.4140624 l 5,-5 z M 10.292969,1 5.2929688,6 H 6.7070312 L 11.707031,1 Z M 13.646484,1.6464844 9.2929688,6 H 10.707031 L 14.353516,2.3535156 Z M 15,4.2929688 13.292969,6 h 1.414062 L 15,5.7070312 Z M 1.2929688,10 1,10.292969 v 1.414062 L 2.7070312,10 Z m 4,0 -3.6464844,3.646484 0.7070312,0.707032 L 6.7070312,10 Z m 4,0 -5,5 h 1.4140624 l 4.9999998,-5 z m 4.0000002,0 -5.0000002,5 H 9.7070312 L 14.707031,10 Z M 15,12.292969 12.292969,15 H 13 l 2,-2 z"
       sodipodi:nodetypes="cccccccccccccccccccccccccccccccccccccccccccccccccc" /><path
       id="rect1-8"
       style="baseline-shift:baseline;display:inline;overflow:visible;vector-effect:none;fill:#ffffff;stroke-linecap:square;enable-background:accumulate;stop-color:#000000"
       d="m 1,13 1.9999998,2 H 13 l 2,-2 V 10 H 1 Z M 1,6 H 15 V 3 L 13,1 H 2.9999998 L 1,3 Z m 1,6.585937 V 11 h 12 v 1.585937 L 12.585938,14 H 3.4140628 Z M 2,5 V 3.414062 L 3.4140628,2 H 12.585938 L 14,3.414062 V 5 Z"
       sodipodi:nodetypes="cccccccccccccccccccccccccccc" /><path
       d="M 0,9 H 16.000001 V 7 H 0 Z"
       style="baseline-shift:baseline;display:inline;overflow:visible;vector-effect:none;fill:#ffffff;stroke-linecap:square;enable-background:accumulate;stop-color:#000000;opacity:0.6"
       id="path1" /></g></svg>
