<?xml version="1.0" encoding="UTF-8" standalone="no"?>
<!-- Created with Inkscape (http://www.inkscape.org/) -->

<svg
   width="37.334"
   height="16"
   viewBox="0 0 37.334 16"
   version="1.1"
   id="svg1"
   xml:space="preserve"
   inkscape:version="1.4.3 (0d15f75042, 2025-12-25)"
   sodipodi:docname=".wave.svg"
   inkscape:export-filename="wave.png"
   inkscape:export-xdpi="1536"
   inkscape:export-ydpi="1536"
   xmlns:inkscape="http://www.inkscape.org/namespaces/inkscape"
   xmlns:sodipodi="http://sodipodi.sourceforge.net/DTD/sodipodi-0.dtd"
   xmlns="http://www.w3.org/2000/svg"
   xmlns:svg="http://www.w3.org/2000/svg"><sodipodi:namedview
     id="namedview1"
     pagecolor="#6c6c6c"
     bordercolor="#000000"
     borderopacity="0.25"
     inkscape:showpageshadow="2"
     inkscape:pageopacity="0.0"
     inkscape:pagecheckerboard="true"
     inkscape:deskcolor="#8e8e8e"
     inkscape:document-units="px"
     showgrid="true"
     inkscape:zoom="22.627417"
     inkscape:cx="17.942835"
     inkscape:cy="8.6841552"
     inkscape:window-width="1880"
     inkscape:window-height="1048"
     inkscape:window-x="40"
     inkscape:window-y="0"
     inkscape:window-maximized="1"
     inkscape:current-layer="layer1"><inkscape:grid
       id="grid1"
       units="px"
       originx="0"
       originy="0"
       spacingx="1"
       spacingy="1"
       empcolor="#0099e5"
       empopacity="0.30196078"
       color="#0099e5"
       opacity="0.14901961"
       empspacing="4"
       enabled="true"
       visible="true" /></sodipodi:namedview><defs
     id="defs1" /><g
     inkscape:label="图层 1"
     inkscape:groupmode="layer"
     id="layer1"><path
       id="rect25"
       style="fill:#000000;fill-opacity:1;stroke:none;stroke-width:5.334;stroke-linecap:square;stroke-linejoin:round;stroke-dasharray:none;stroke-opacity:1"
       d="m 2.6659579,0 v 3.082367 l 7.9999541,5.533204 7.999954,-5.53125 7.999954,5.53125 7.999954,-5.533204 V 0 Z M 18.665866,7.551 10.665912,13.086602 2.6659579,7.5533985 V 16 H 34.665774 V 7.5533985 L 26.66582,13.086602 Z"
       sodipodi:nodetypes="cccccccccccccccc" /><rect
       style="display:none;fill:#000000;fill-opacity:1;stroke:none;stroke-width:1.59999;stroke-linecap:square"
       id="rect7"
       width="32"
       height="16"
       x="0"
       y="0"
       sodipodi:insensitive="true" /><path
       id="rect4"
       style="display:none;fill:#ffffff;stroke-width:1.6;stroke-linecap:square"
       d="m 0,2.1132812 v 3.7734376 l 8,8.0000002 8,-8.0000002 8,8.0000002 8,-8.0000002 V 2.1132812 L 24,10.113281 16,2.1132812 8,10.113281 Z" /><g
       id="path7"
       style="display:none;opacity:1;stroke:none"><path
         id="path8"
         style="baseline-shift:baseline;display:none;overflow:visible;fill:#ffffff;stroke:#ffffff;stroke-width:0.998;stroke-linecap:square;stroke-dasharray:none;stroke-opacity:1;enable-background:accumulate;stop-color:#000000;stop-opacity:1"
         d="M -0.668,5 V 5.00405 L 7.9999687,11 15.999969,5.4660063 23.999969,11 32.667938,5.0040522 V 5 l -8.667969,5.995948 -8,-5.5326432 -8.0000003,5.5326432 z" /></g><path
       id="path19"
       style="baseline-shift:baseline;display:none;overflow:visible;fill:#ffffff;stroke:#ff0000;stroke-width:5.334;stroke-linecap:square;stroke-dasharray:none;stroke-opacity:1;enable-background:accumulate;stop-color:#000000"
       d="M -1.1679688,4.0488281 V 5.265625 L 8,11.607422 16,6.0722656 24,11.607422 33.166016,5.265625 V 4.0488281 L 24,10.388672 16,4.8574219 8,10.388672 Z" /><path
       id="path20"
       style="baseline-shift:baseline;display:none;overflow:visible;vector-effect:none;fill:#ffffff;stroke:none;stroke-linecap:square;stroke-opacity:1;enable-background:accumulate;stop-color:#000000"
       d="M -1.1679688,4.0488281 V 5.265625 L 8,11.607422 16,6.0722656 24,11.607422 33.166016,5.265625 V 4.0488281 L 24,10.388672 16,4.8574219 8,10.388672 Z" /><path
       style="baseline-shift:baseline;display:none;overflow:visible;opacity:1;vector-effect:none;fill:#ff0000;stroke-linecap:square;enable-background:accumulate;stop-color:#000000;stop-opacity:1"
       d="m 0.8984375,2.9042969 v 2.6757812 l 9.7675785,6.7578129 8,-5.5351566 8,5.5351566 9.767578,-6.7578129 V 2.9042969 l -9.767578,6.7539062 -8,-5.5292969 -8,5.5312501 z"
       id="path1" /><path
       id="path2"
       style="baseline-shift:baseline;display:none;overflow:visible;opacity:1;vector-effect:none;fill:#ffffff;stroke-linecap:square;enable-background:accumulate;stop-color:#000000;stop-opacity:1"
       d="m -1.7695312,13.816406 v 9.16211 l 12.4355472,8.601562 8,-5.535156 8,5.535156 12.435546,-8.601562 v -9.160157 l -12.435546,8.597657 -8,-5.529297 -8,5.53125 z M -7.326,13.216 10.666,25.66 l 8.000016,-5.531094 8,5.529094 L 44.6593,13.217 44.658,15.89 26.666,28.338 18.666016,22.802734 10.666,28.338 -7.326,15.89 Z"
       sodipodi:nodetypes="cccccccccccccccccccccc" /><rect
       style="display:none;fill:#ffffff;fill-opacity:1;stroke:none;stroke-width:1.6;stroke-linecap:square;stroke-linejoin:round;stroke-dasharray:none;stroke-opacity:1"
       id="rect5"
       width="2.6669846"
       height="1.5"
       x="-4.2277337e-05"
       y="0" /><rect
       style="display:none;fill:#ffffff;fill-opacity:1;stroke:none;stroke-width:1.6;stroke-linecap:square;stroke-linejoin:round;stroke-dasharray:none;stroke-opacity:1"
       id="rect5-8"
       width="2.6669846"
       height="1.5"
       x="34.666756"
       y="0" /><rect
       style="fill:#ffffff;fill-opacity:1;stroke:none;stroke-width:1.6;stroke-linecap:square;stroke-linejoin:round;stroke-dasharray:none;stroke-opacity:1"
       id="rect6"
       width="2.6669846"
       height="7.999619"
       x="34.666756"
       y="8.0003834" /><rect
       style="fill:#ffffff;fill-opacity:1;stroke:none;stroke-width:1.6;stroke-linecap:square;stroke-linejoin:round;stroke-dasharray:none;stroke-opacity:1"
       id="rect8"
       width="2.6669846"
       height="7.999619"
       x="-4.2277337e-05"
       y="8.0003834" /><path
       id="path11"
       style="baseline-shift:baseline;display:inline;overflow:visible;opacity:1;vector-effect:none;fill:#ffffff;stroke-width:0.999997;stroke-linecap:square;enable-background:accumulate;stop-color:#000000;stop-opacity:1"
       d="m -1.7695633,-3.070633 1.5e-4,10.46911 L 10.666062,16 18.666016,10.464883 26.66597,16.000039 39.101444,7.398477 39.101294,-3.06868 26.66582,5.528977 18.665866,-3.9e-5 10.665912,5.53093 Z M -7.326,-3.671039 l 17.991896,12.444 7.99997,-5.531094 7.999954,5.529094 17.99318,-12.441 -0.0011,3.98 -17.991896,12.448 L 18.665916,7.223 10.666096,12.757961 -7.3258,0.309961 Z"
       sodipodi:nodetypes="cccccccccccccccccccccc" /></g></svg>
