<?xml version="1.0" encoding="UTF-8" standalone="no"?>
<!-- Created with Inkscape (http://www.inkscape.org/) -->

<svg
   width="16"
   height="16"
   viewBox="0 0 16 16"
   version="1.1"
   id="svg1"
   inkscape:version="1.4.3 (0d15f75042, 2025-12-25)"
   sodipodi:docname=".settings.svg"
   inkscape:export-filename="settings.png"
   inkscape:export-xdpi="1536"
   inkscape:export-ydpi="1536"
   xmlns:inkscape="http://www.inkscape.org/namespaces/inkscape"
   xmlns:sodipodi="http://sodipodi.sourceforge.net/DTD/sodipodi-0.dtd"
   xmlns="http://www.w3.org/2000/svg"
   xmlns:svg="http://www.w3.org/2000/svg">
  <sodipodi:namedview
     id="namedview1"
     pagecolor="#000000"
     bordercolor="#000000"
     borderopacity="0.25"
     inkscape:showpageshadow="2"
     inkscape:pageopacity="0.0"
     inkscape:pagecheckerboard="0"
     inkscape:deskcolor="#d1d1d1"
     inkscape:document-units="px"
     inkscape:zoom="18.28125"
     inkscape:cx="12.690598"
     inkscape:cy="5.0051282"
     inkscape:window-width="1880"
     inkscape:window-height="1048"
     inkscape:window-x="40"
     inkscape:window-y="0"
     inkscape:window-maximized="1"
     inkscape:current-layer="layer1" />
  <defs
     id="defs1" />
  <g
     inkscape:label="图层 1"
     inkscape:groupmode="layer"
     id="layer1">
    <rect
       style="fill:#ffffff;stroke-width:0.5;stroke-linecap:square;stroke-linejoin:round;fill-opacity:1"
       id="rect2"
       width="16"
       height="16"
       x="0"
       y="0" />
    <path
       style="font-size:16px;font-family:'CaskaydiaCove Nerd Font Mono';-inkscape-font-specification:'CaskaydiaCove Nerd Font Mono';stroke-width:0.5;stroke-linecap:square;stroke-linejoin:round"
       d="M 9.734458,12.656375 Q 9.468821,12.750125 9.257873,12.531371 L 8.49221,11.687599 Q 8.250012,11.718849 8,11.718849 q -0.250012,0 -0.492211,-0.03125 L 6.7421262,12.531371 Q 6.531178,12.750127 6.2655402,12.656375 5.9139612,12.531371 5.5936327,12.343866 L 5.4451885,12.250114 Q 5.1170476,12.062609 4.835784,11.828228 4.7342161,11.750096 4.6951522,11.609472 4.6639012,11.484468 4.7029522,11.34384 L 5.0467188,10.281311 Q 4.7498298,9.890676 4.5545084,9.421914 L 3.4450797,9.171907 Q 3.3122603,9.156282 3.2185057,9.046904 3.1247507,8.953151 3.101313,8.828148 3.031,8.390636 3.031,8.000001 3.031,7.609365 3.101313,7.171854 3.124754,7.04685 3.2185057,6.953098 3.3122607,6.859348 3.4450797,6.828095 L 4.5545084,6.5780876 Q 4.7498298,6.1093251 5.0467192,5.7186897 L 4.7029526,4.6405359 Q 4.6638906,4.5155326 4.6951526,4.3905292 4.7342146,4.2499005 4.8357844,4.1717734 5.1248604,3.9217667 5.4373755,3.7498871 L 5.5936331,3.6561341 Q 5.9061482,3.4686291 6.2655406,3.3436258 6.5311784,3.2498738 6.7421266,3.4686291 L 7.507788,4.3124017 q 0.281263,-0.046876 0.492211,-0.031251 0.210948,0 0.492211,0.031251 L 9.257872,3.4686291 Q 9.46882,3.2498733 9.734458,3.3436258 q 0.351579,0.1250033 0.664094,0.3125083 l 0.156258,0.093753 q 0.312515,0.187505 0.609404,0.4218863 0.101568,0.078127 0.140632,0.2187558 0.03125,0.1250034 -0.0078,0.2500067 l -0.343767,1.0781538 q 0.296889,0.3906354 0.492212,0.8593979 l 1.101615,0.2500074 q 0.13282,0.01563 0.234387,0.125003 0.09375,0.09375 0.117193,0.218756 0.07031,0.390635 0.07031,0.828147 0,0.390635 -0.07031,0.828147 -0.02344,0.125003 -0.117193,0.234381 -0.09375,0.09375 -0.226573,0.109378 l -1.109429,0.250007 q -0.187509,0.468762 -0.492211,0.859397 l 0.343766,1.078154 q 0.08594,0.281258 -0.132818,0.468763 -0.312515,0.265632 -0.609404,0.437511 l -0.156258,0.07813 q -0.328141,0.187505 -0.656282,0.312509 z M 6.9061966,6.906222 q -0.4609597,0.453137 -0.4609597,1.093779 0,0.640642 0.4609597,1.093779 Q 7.359344,9.562542 8,9.562542 q 0.640656,0 1.093802,-0.468762 0.46096,-0.453137 0.46096,-1.093779 0,-0.640642 -0.46096,-1.093779 Q 8.632842,6.4530843 8,6.4530843 q -0.640656,0 -1.0938034,0.4531377 z"
       id="text1"
       aria-label="" />
  </g>
</svg>
