<?xml version="1.0" encoding="UTF-8" standalone="no"?>
<!-- Created with Inkscape (http://www.inkscape.org/) -->

<svg
   width="16"
   height="16"
   viewBox="0 0 16 16"
   version="1.1"
   id="svg1"
   inkscape:version="1.4.3 (0d15f75042, 2025-12-25)"
   sodipodi:docname=".settings.svg"
   inkscape:export-filename="settings.png"
   inkscape:export-xdpi="1536"
   inkscape:export-ydpi="1536"
   xmlns:inkscape="http://www.inkscape.org/namespaces/inkscape"
   xmlns:sodipodi="http://sodipodi.sourceforge.net/DTD/sodipodi-0.dtd"
   xmlns="http://www.w3.org/2000/svg"
   xmlns:svg="http://www.w3.org/2000/svg">
  <sodipodi:namedview
     id="namedview1"
     pagecolor="#000000"
     bordercolor="#000000"
     borderopacity="0.25"
     inkscape:showpageshadow="2"
     inkscape:pageopacity="0.0"
     inkscape:pagecheckerboard="0"
     inkscape:deskcolor="#d1d1d1"
     inkscape:document-units="px"
     inkscape:zoom="18.28125"
     inkscape:cx="12.690598"
     inkscape:cy="5.0051282"
     inkscape:window-width="1880"
     inkscape:window-height="1048"
     inkscape:window-x="40"
     inkscape:window-y="0"
     inkscape:window-maximized="1"
     inkscape:current-layer="layer1" />
  <defs
     id="defs1" />
  <g
     inkscape:label="图层 1"
     inkscape:groupmode="layer"
     id="layer1">
    <rect
       style="fill:#000000;stroke-width:0.5;stroke-linecap:square;stroke-linejoin:round;fill-opacity:1"
       id="rect2"
       width="16"
       height="16"
       x="0"
       y="0" />
    <path
       id="rect1"
       style="fill:#ffffff;fill-opacity:1;stroke-width:0.5;stroke-linecap:square;stroke-linejoin:round"
       d="M 0 0 L -16 0 L -16 16 L 0 16 L 0 0 z M -2.8789062 5.4980469 C -2.8789062 5.8144663 -2.9843788 6.089834 -3.1953125 6.3242188 C -3.4062462 6.5586035 -3.6699277 6.689452 -3.9863281 6.7167969 L -5.1464844 6.7167969 C -5.4628848 6.689452 -5.7265663 6.5586036 -5.9375 6.3242188 C -6.1484336 6.089834 -6.2539062 5.8144663 -6.2539062 5.4980469 C -6.2539062 5.1777209 -6.1484336 4.9004004 -5.9375 4.6660156 C -5.7265663 4.4316308 -5.4628848 4.3007824 -5.1464844 4.2734375 L -3.9863281 4.2734375 C -3.6699277 4.3007824 -3.4062462 4.4316308 -3.1953125 4.6660156 C -2.9843788 4.9004004 -2.8789062 5.1777209 -2.8789062 5.4980469 z M -3.9863281 3.1289062 C -3.9855347 3.1429449 -3.9858399 3.157226 -3.9863281 3.171875 L -3.9863281 3.9277344 L -5.1464844 3.9277344 L -5.1464844 3.171875 C -5.1503906 3.0546827 -5.1132798 2.9570345 -5.0351562 2.8789062 C -4.9570327 2.800778 -4.8593728 2.7617187 -4.7421875 2.7617188 L -4.390625 2.7617188 C -4.2734396 2.7617187 -4.1757798 2.800778 -4.0976562 2.8789062 C -4.0292981 2.9472685 -3.9918822 3.0306356 -3.9863281 3.1289062 z M -3.9863281 7.1269531 L -3.9863281 12.828125 C -3.9824215 12.945317 -4.0195322 13.042965 -4.0976562 13.121094 C -4.1757798 13.199222 -4.2734396 13.238281 -4.390625 13.238281 L -4.7421875 13.238281 C -4.8593728 13.238281 -4.9570327 13.199222 -5.0351562 13.121094 C -5.1132798 13.042965 -5.1503906 12.945317 -5.1464844 12.828125 L -5.1464844 7.1269531 L -3.9863281 7.1269531 z M -6.3125 10.501953 C -6.3125 10.82228 -6.4179727 11.0996 -6.6289062 11.333984 C -6.83984 11.56837 -7.1035213 11.699218 -7.4199219 11.726562 L -8.5800781 11.726562 C -8.8964788 11.699223 -9.1601604 11.568374 -9.3710938 11.333984 C -9.5820271 11.0996 -9.6875 10.82228 -9.6875 10.501953 C -9.6875 10.185534 -9.5820271 9.9101666 -9.3710938 9.6757812 C -9.1601604 9.4413966 -8.8964788 9.3105478 -8.5800781 9.2832031 L -7.4199219 9.2832031 C -7.1035213 9.3105498 -6.83984 9.4413986 -6.6289062 9.6757812 C -6.4179727 9.9101666 -6.3125 10.185534 -6.3125 10.501953 z M -7.4199219 3.1289062 C -7.4191284 3.1429449 -7.4194336 3.157226 -7.4199219 3.171875 L -7.4199219 8.8730469 L -8.5800781 8.8730469 L -8.5800781 3.171875 C -8.5839841 3.0546827 -8.5468733 2.9570345 -8.46875 2.8789062 C -8.390626 2.800778 -8.2929666 2.7617187 -8.1757812 2.7617188 L -7.8242188 2.7617188 C -7.7070334 2.7617187 -7.6093733 2.800778 -7.53125 2.8789062 C -7.4628921 2.9472685 -7.4254761 3.0306356 -7.4199219 3.1289062 z M -7.4199219 12.072266 L -7.4199219 12.828125 C -7.4159885 12.945317 -7.4530993 13.042965 -7.53125 13.121094 C -7.6093733 13.199222 -7.7070334 13.238281 -7.8242188 13.238281 L -8.1757812 13.238281 C -8.2929666 13.238281 -8.390626 13.199222 -8.46875 13.121094 C -8.5468733 13.042965 -8.5839841 12.945317 -8.5800781 12.828125 L -8.5800781 12.072266 L -7.4199219 12.072266 z M -9.7460938 7.4199219 C -9.7460938 7.7363412 -9.8515667 8.0117091 -10.0625 8.2460938 C -10.273434 8.4804784 -10.537116 8.6113265 -10.853516 8.6386719 L -12.013672 8.6386719 C -12.330073 8.6113252 -12.593754 8.4804771 -12.804688 8.2460938 C -13.015621 8.0117091 -13.121094 7.7363412 -13.121094 7.4199219 C -13.121094 7.0995958 -13.015621 6.8222754 -12.804688 6.5878906 C -12.593754 6.3535058 -12.330073 6.2226574 -12.013672 6.1953125 L -10.853516 6.1953125 C -10.537116 6.2226572 -10.273434 6.3535056 -10.0625 6.5878906 C -9.8515667 6.8222754 -9.7460938 7.0995958 -9.7460938 7.4199219 z M -10.853516 3.1289062 C -10.852722 3.1429449 -10.853027 3.157226 -10.853516 3.171875 L -10.853516 5.84375 L -12.013672 5.84375 L -12.013672 3.171875 C -12.017579 3.0546827 -11.980468 2.9570345 -11.902344 2.8789062 C -11.82422 2.800778 -11.72656 2.7617187 -11.609375 2.7617188 L -11.257812 2.7617188 C -11.140627 2.7617187 -11.042968 2.800778 -10.964844 2.8789062 C -10.896486 2.9472685 -10.85907 3.0306356 -10.853516 3.1289062 z M -10.853516 8.9902344 L -10.853516 12.828125 C -10.849582 12.945317 -10.886693 13.042965 -10.964844 13.121094 C -11.042968 13.199222 -11.140627 13.238281 -11.257812 13.238281 L -11.609375 13.238281 C -11.72656 13.238281 -11.82422 13.199222 -11.902344 13.121094 C -11.980468 13.042965 -12.017579 12.945317 -12.013672 12.828125 L -12.013672 8.9902344 L -10.853516 8.9902344 z "
       transform="rotate(-90)" />
  </g>
</svg>
